<svg width="1150" height="1150" viewBox="0 0 1150 1150" fill="none" xmlns="http://www.w3.org/2000/svg">
<rect width="1150" height="1150" fill="white"/>
<path d="M321 493.146C321 473.816 336.67 458.146 356 458.146H554.154V656.222C554.154 675.552 538.484 691.222 519.154 691.222H356C336.67 691.222 321 675.552 321 656.222V493.146Z" fill="#08C46B"/>
<path d="M828.378 382.076C828.378 401.406 812.708 417.076 793.378 417.076L595.224 417.076L595.225 219C595.225 199.67 610.895 184 630.225 184L793.378 184C812.708 184 828.378 199.67 828.378 219L828.378 382.076Z" fill="#08C46B"/>
<path d="M321 493.146C321 473.817 336.67 458.146 356 458.146H554.154V656.222C554.154 675.552 538.484 691.222 519.154 691.222H356C336.67 691.222 321 675.552 321 656.222V493.146Z" fill="#5251F7"/>
<path d="M321 382.076C321 401.406 336.67 417.076 356 417.076L554.154 417.076L554.154 219C554.154 199.67 538.484 184 519.154 184L356 184C336.67 184 321 199.67 321 219L321 382.076Z" fill="#EE5A7E"/>
<path d="M828.378 493.146C828.378 473.816 812.708 458.146 793.378 458.146L595.224 458.146L595.224 656.222C595.224 675.552 610.894 691.222 630.224 691.222L793.378 691.222C812.708 691.222 828.378 675.552 828.378 656.222L828.378 493.146Z" fill="#0083F6"/>
<path d="M828.378 767.292C828.378 747.962 812.708 732.292 793.378 732.292L595.224 732.292L595.224 930.368C595.224 949.698 610.894 965.368 630.224 965.368L793.378 965.368C812.708 965.368 828.378 949.698 828.378 930.368L828.378 767.292Z" fill="#FFC906"/>
</svg>
